PathFileType	4	(X/Y/Z)	/Users/niels/Desktop/University/Third Semester/Perception and Action/Exam/Gymnastics Motion Tracking/Code for Gym Tracking/Analyzed Data/Webcam_Backflip/id16_1_trajectory_Sports2D/id16_1_trajectory_Sports2D_px_person00.trc
DataRate	CameraRate	NumFrames	NumMarkers	Units	OrigDataRate	OrigDataStartFrame	OrigNumFrames
29.7	29.7	12	22	m	29.7	0	100
Frame#	Time	Hip			RHip			RKnee			RAnkle			RBigToe			RSmallToe			RHeel			LHip			LKnee			LAnkle			LBigToe			LSmallToe			LHeel			Neck			Head			Nose			RShoulder			RElbow			RWrist			LShoulder			LElbow			LWrist		
		X1	Y1	Z1	X2	Y2	Z2	X3	Y3	Z3	X4	Y4	Z4	X5	Y5	Z5	X6	Y6	Z6	X7	Y7	Z7	X8	Y8	Z8	X9	Y9	Z9	X10	Y10	Z10	X11	Y11	Z11	X12	Y12	Z12	X13	Y13	Z13	X14	Y14	Z14	X15	Y15	Z15	X16	Y16	Z16	X17	Y17	Z17	X18	Y18	Z18	X19	Y19	Z19	X20	Y20	Z20	X21	Y21	Z21	X22	Y22	Z22
0	0.0	0.9826599819445737	-1.059485190308709	0.0	0.7683819539036832	-1.047653272225478	0.0	0.5600410156384715	-1.0476318359380454	0.0	0.81439306640625	-1.04120849609375	0.0	0.6857673339843746	-0.24904003906249994	0.0			0.0			0.0	1.2623568325924523	-1.0416959292291217	0.0	0.6136103602165618	-1.0297753910529026	0.0			0.0			0.0			0.0			0.0	1.0005048145930517	-0.6546709349661421	0.0	1.0064701206502478	-0.13686578466277113	0.0	1.0005120258890587	-0.362998275014128	0.0	0.6672282129662117	-0.7796067641814362	0.0	0.3219988919316588	-1.0415372388490367	0.0	0.5478811359612351	-1.0595375290719846	0.0	1.3813980741793335	-0.767685837397004	0.0	1.738440075384433	-1.0355167719472904	0.0	1.8636305690835995	-1.0477134419193692	0.0
1	0.03367003367003367	0.9754122312215179	-1.057707618035241	0.0	0.7527778767258467	-1.0314933901227104	0.0	0.5600410156352935	-1.0476318359379782	0.0	0.81439306640625	-1.04120849609375	0.0	0.6857673339843746	-0.24904003906249994	0.0			0.0			0.0	1.2599408090971402	-1.0252859438994877	0.0	0.6136103611380216	-1.0297753911452747	0.0			0.0			0.0			0.0			0.0	0.9956175722231762	-0.6505242791118715	0.0	1.0074919424845454	-0.13656731396818153	0.0	1.0040174011481386	-0.36205650610543294	0.0	0.6597614822103335	-0.7799148146335855	0.0	0.2402003835288919	-1.033465348771935	0.0	0.4889545479058278	-0.8813758159831978	0.0	1.3699910462706342	-0.7589453136766001	0.0	1.7573664765226578	-0.990069638875685	0.0	1.8167860912409868	-0.8533533063717869	0.0
2	0.06734006734006734	0.9718048848174645	-1.0561407452922467	0.0	0.7425365659449309	-1.0173036091014738	0.0	0.5600410156208666	-1.047631835937503	0.0	0.81439306640625	-1.04120849609375	0.0	0.6857673339843746	-0.24904003906249994	0.0			0.0			0.0	1.2590760278341013	-1.011310271368318	0.0	0.6136103571113467	-1.0297753910289742	0.0			0.0			0.0			0.0			0.0	0.9916533157214161	-0.6467901384800789	0.0	1.0074745824248834	-0.13681429335816317	0.0	1.0060063627660292	-0.361227369538328	0.0	0.6553952603047338	-0.7806213006952533	0.0	0.17842396319134943	-1.0123877927586795	0.0	0.46181422979237097	-0.6996429063616745	0.0	1.3601488717236745	-0.7523446050279864	0.0	1.77826262429994	-0.9363701010785129	0.0	1.772622798818478	-0.6604149140648807	0.0
3	0.10101010101010101	0.9719440087296443	-1.055425581511911	0.0	0.7398903173529522	-1.0068536971028597	0.0	0.5600410155886194	-1.0476318359363503	0.0	0.81439306640625	-1.04120849609375	0.0	0.6857673339843746	-0.24904003906249994	0.0			0.0			0.0	1.2588452863577284	-1.001304065401139	0.0	0.6136103437299286	-1.0297753904831883	0.0			0.0			0.0			0.0			0.0	0.9890981636583493	-0.6442219100049462	0.0	1.0057491769613702	-0.1383204761861662	0.0	1.0056846319806443	-0.3610291216688731	0.0	0.6550125595297478	-0.7821832982402286	0.0	0.1479044606754318	-0.9690220793935366	0.0	0.4741760129401313	-0.5195197585588718	0.0	1.3524083416573667	-0.7495715899624231	0.0	1.7975027742348273	-0.8689790573638678	0.0	1.7270840588265017	-0.4762249229484251	0.0
4	0.13468013468013468	0.9737276791867772	-1.0561079553183097	0.0	0.7433959301285225	-1.0011172342284316	0.0	0.5600410155342809	-1.0476318359343098	0.0	0.81439306640625	-1.04120849609375	0.0	0.6857673339843746	-0.24904003906249994	0.0			0.0			0.0	1.2572548577509615	-0.995820061457059	0.0	0.613610316433462	-1.0297753892537305	0.0			0.0			0.0			0.0			0.0	0.9877609019057602	-0.6437545240953474	0.0	1.0023669132363997	-0.141817476373684	0.0	1.0032952854877146	-0.36223440932737827	0.0	0.6574944157588143	-0.7852214189494474	0.0	0.1490994054787093	-0.9022496981948109	0.0	0.5128910864837033	-0.3541589029194711	0.0	1.3461287515026852	-0.7512084210189767	0.0	1.8081638160706666	-0.7885519832127308	0.0	1.6745190145274098	-0.31189745248434747	0.0
5	0.16835016835016836	0.975580699382882	-1.0579661886130964	0.0	0.7501582670639184	-0.9998279574998742	0.0	0.5600410154619443	-1.047631835931452	0.0	0.81439306640625	-1.04120849609375	0.0	0.6857673339843746	-0.24904003906249994	0.0			0.0			0.0	1.253340150745771	-0.9945541384369797	0.0	0.6136102732700849	-1.0297753871717121	0.0			0.0			0.0			0.0			0.0	0.9870282298848732	-0.6462029861326343	0.0	0.9981629343503398	-0.14822522638268343	0.0	0.9998424000688383	-0.36597511060924387	0.0	0.6612378189123164	-0.7902667946530105	0.0	0.17536567193682784	-0.8200503922325767	0.0	0.5606727337952385	-0.21712763974627045	0.0	1.340107910845363	-0.7567242058787925	0.0	1.8049381050570774	-0.7024571980128638	0.0	1.615136142285975	-0.17839789119529295	0.0
6	0.20202020202020202	0.977008045013783	-1.0604048694215444	0.0	0.7579336485071803	-1.0017974826666427	0.0	0.5600410153932897	-1.0476318359284829	0.0	0.81439306640625	-1.04120849609375	0.0	0.6857673339843746	-0.24904003906249994	0.0			0.0			0.0	1.247307383050152	-0.9964938841080501	0.0	0.6136102198826174	-1.0297753843852686	0.0			0.0			0.0			0.0			0.0	0.9862828274125709	-0.6519611464025983	0.0	0.9941523750411377	-0.15865207476489224	0.0	0.996435291398929	-0.37365907449918734	0.0	0.6650923584883952	-0.797287522642909	0.0	0.21723081594423285	-0.7350599378903284	0.0	0.6056257369087606	-0.11615384802214464	0.0	1.3332685595766514	-0.7650899378964523	0.0	1.7864477976806281	-0.6211193102172388	0.0	1.5548223216143156	-0.08296849480392254	0.0
7	0.23569023569023567	0.9780737411796792	-1.0631736492556183	0.0	0.7655650734266035	-1.0056541300030304	0.0	0.5600410153784294	-1.0476318359271841	0.0	0.81439306640625	-1.04120849609375	0.0	0.6857673339843746	-0.24904003906249994	0.0			0.0			0.0	1.2398352255549885	-1.0003877720332193	0.0	0.6136101766234409	-1.0297753817136892	0.0			0.0			0.0			0.0			0.0	0.9851951692633715	-0.660517527151929	0.0	0.9907402535807027	-0.17363362170352994	0.0	0.9936995665615792	-0.38608493331413485	0.0	0.6684615193656084	-0.8055771561293447	0.0	0.26554467815360094	-0.6583493255820795	0.0	0.6423460597947342	-0.050888563023673464	0.0	1.3251912965884145	-0.7750510726901662	0.0	1.7550174570617074	-0.5527926256141201	0.0	1.5006806256651768	-0.02453667639773537	0.0
8	0.26936026936026936	0.9790963636902336	-1.066246441693583	0.0	0.7726447308133914	-1.0103244901497892	0.0	0.5600410155035976	-1.047631835930781	0.0	0.81439306640625	-1.04120849609375	0.0	0.6857673339843746	-0.24904003906249994	0.0			0.0			0.0	1.2316175239358105	-1.0051856895199949	0.0	0.6136101861754195	-1.0297753810665993	0.0			0.0			0.0			0.0			0.0	0.9838805042134914	-0.6701422861214292	0.0	0.9876945294526663	-0.1923909417738859	0.0	0.9916934102068867	-0.4024529555156726	0.0	0.6711805581570963	-0.8138300616656667	0.0	0.3133311928544867	-0.5958277336411206	0.0	0.6693742119624894	-0.014216106162260937	0.0	1.3163840956281694	-0.7848120669504098	0.0	1.715108189615317	-0.5005283448901204	0.0	1.4578083619685567	0.0062580517169230935	0.0
9	0.30303030303030304	0.9804243949601398	-1.0692556985908284	0.0	0.7791358347119492	-1.0151558670567191	0.0	0.5600410158861666	-1.0476318359438863	0.0	0.81439306640625	-1.04120849609375	0.0	0.6857673339843746	-0.24904003906249994	0.0			0.0			0.0	1.2231706053133382	-1.0101877735842584	0.0	0.6136103174174065	-1.0297753857467367	0.0			0.0			0.0			0.0			0.0	0.9827662812745105	-0.6783197429174662	0.0	0.9848215497548541	-0.21280487089589495	0.0	0.9902930418054875	-0.42014506549308517	0.0	0.6735954843826566	-0.8201153304455964	0.0	0.3562374967806176	-0.5481245684332864	0.0	0.6861106336068301	0.0038015521975682622	0.0	1.30778859055522	-0.7917737682099147	0.0	1.671462368985136	-0.46228680381908765	0.0	1.4284662575767202	0.021131097327147522	0.0
10	0.3367003367003367	0.9822373211107197	-1.0713012827312596	0.0	0.7850590535213146	-1.019858111733337	0.0	0.5600410166422214	-1.0476318359714591	0.0	0.81439306640625	-1.04120849609375	0.0	0.6857673339843746	-0.24904003906249994	0.0			0.0			0.0	1.2147877261659756	-1.015002922708861	0.0	0.6136106576657343	-1.029775400272833	0.0			0.0			0.0			0.0			0.0	0.9822332297072899	-0.6824855736480397	0.0	0.9824074607687563	-0.23169607772268194	0.0	0.9895260559976201	-0.4352740613127175	0.0	0.6764586537929714	-0.8219696795302457	0.0	0.3920591472863507	-0.5122567719920196	0.0	0.6913072924424651	0.011837846573224281	0.0	1.2999467191448508	-0.7928959187014956	0.0	1.6279411104173298	-0.4329618284042312	0.0	1.412373977737924	0.028473305134157727	0.0
11	0.37037037037037035	0.9845390138491525	-1.0713108202229178	0.0	0.7902776726160509	-1.0243850882463763	0.0	0.560041017808852	-1.0476318360160566	0.0	0.81439306640625	-1.04120849609375	0.0	0.6857673339843746	-0.24904003906249994	0.0			0.0			0.0	1.2065536167534046	-1.0194440736925587	0.0	0.6136112818280899	-1.0297754291557335	0.0			0.0			0.0			0.0			0.0	0.9823871048933032	-0.6805773730349979	0.0	0.9810451246356028	-0.245656639225513	0.0	0.9895916767103433	-0.4439977392959356	0.0	0.6804479708668943	-0.8170622123737139	0.0	0.4199596581304265	-0.4837449434334116	0.0	0.6834038386514111	0.015460437301727796	0.0	1.292777665011673	-0.7857227811927151	0.0	1.5871942538704007	-0.40714690128568737	0.0	1.4071863602666648	0.03209424579789219	0.0
